# xmcd
#
# Track frame offsets:
#  150
#  18266
#  39105
#  57734
#  77144
#  91687
#  107001
#  126704
#  145303
#  166406
#  180678
#  202368
#  218526
#  234363
#  253282
#  268215
#  283402
#
# Disc length: 3993 seconds
#
# Revision: 0
# Processed by: cddbd v1.5.2PL0 Copyright (c) Steve Scherf et al.
# Submitted via: AltoMP3_Maker 3.0
#
DISCID=050f9711
DTITLE=Leonardo - Selecao Essencial
DYEAR=1900
DGENRE=
TTITLE0=Um Sonhador
TTITLE1=120 150 200km
TTITLE2=Cristal Quebrado
TTITLE3=Deu Medo
TTITLE4=Meu Mel
TTITLE5=Cade Voce
TTITLE6=Deixaria Tudo
TTITLE7=Quero Colo
TTITLE8=Coracao Espinhado
TTITLE9=Nao Aprendi a Dizer Adeus
TTITLE10=Mano
TTITLE11=Pense em Mim
TTITLE12=Cerveja
TTITLE13=Eu Juro
TTITLE14=Cumade e Cumpade
TTITLE15=Brincadeira Tem Hora
TTITLE16=Fantasias
EXTD=
EXTT0=
EXTT1=
EXTT2=
EXTT3=
EXTT4=
EXTT5=
EXTT6=
EXTT7=
EXTT8=
EXTT9=
EXTT10=
EXTT11=
EXTT12=
EXTT13=
EXTT14=
EXTT15=
EXTT16=
PLAYORDER=
